<?xml version="1.0" standalone="no"?>
<svg viewBox="0 0 200 200" xmlns="http://www.w3.org/2000/svg">
  <path fill="#FFFFFF" d="M40.7,-68.8C53.3,-63.2,64.4,-53.4,68,-41.2C71.6,-29.1,67.7,-14.5,69.1,0.8C70.4,16.1,77,32.2,70.6,39.4C64.1,46.7,44.6,45.1,30.7,52.3C16.8,59.6,8.4,75.6,-1.6,78.4C-11.7,81.3,-23.3,71,-37.2,63.7C-51,56.4,-67,52.2,-70.1,42.1C-73.1,31.9,-63.2,16,-63.4,-0.1C-63.5,-16.1,-73.6,-32.2,-69.8,-41.1C-66.1,-50,-48.4,-51.6,-34.5,-56.4C-20.5,-61.2,-10.3,-69.2,1.9,-72.5C14.1,-75.8,28.1,-74.4,40.7,-68.8Z" transform="translate(100 100)" />
</svg>
